<svg width="30" height="28" viewBox="0 0 30 28" fill="none" xmlns="http://www.w3.org/2000/svg">
<path d="M16.528 1.69001C15.9816 1.31076 15.7082 1.12113 15.4065 1.04824C15.1403 0.983921 14.8597 0.983921 14.5935 1.04824C14.2918 1.12113 14.0184 1.31076 13.472 1.69001L2.92172 9.01142C2.21648 9.50084 1.86386 9.74554 1.60982 10.052C1.3848 10.3234 1.21716 10.6293 1.11516 10.9544C1 11.3215 1 11.72 1 12.5173V22.5587C1 24.1133 1 24.8905 1.3391 25.4844C1.63736 26.0067 2.1133 26.4314 2.6987 26.6974C3.3642 27 4.2354 27 5.97778 27H9.08889C9.52449 27 9.74229 27 9.90867 26.9244C10.055 26.8579 10.174 26.7517 10.2486 26.6211C10.3333 26.4726 10.3333 26.2783 10.3333 25.8897V16.7294C10.3333 15.9521 10.3333 15.5635 10.5029 15.2666C10.652 15.0054 10.89 14.7932 11.1827 14.6601C11.5154 14.5088 11.951 14.5088 12.8222 14.5088H17.1778C18.049 14.5088 18.4846 14.5088 18.8173 14.6601C19.1101 14.7932 19.3479 15.0054 19.4971 15.2666C19.6667 15.5635 19.6667 15.9521 19.6667 16.7294V25.8897C19.6667 26.2783 19.6667 26.4726 19.7514 26.6211C19.826 26.7517 19.945 26.8579 20.0913 26.9244C20.2578 27 20.4756 27 20.9111 27H24.0222C25.7646 27 26.6359 27 27.3013 26.6974C27.8867 26.4314 28.3627 26.0067 28.6609 25.4844C29 24.8905 29 24.1133 29 22.5587V12.5173C29 11.72 29 11.3215 28.8849 10.9544C28.7828 10.6293 28.6152 10.3234 28.3902 10.052C28.1362 9.74554 27.7836 9.50084 27.0783 9.01143L16.528 1.69001Z" stroke="#234A1F" stroke-width="2" stroke-linecap="round" stroke-linejoin="round"/>
</svg>
