<svg width="30" height="28" viewBox="0 0 30 28" fill="none" xmlns="http://www.w3.org/2000/svg">
<path d="M8 11.5636H8.01556M15 11.5636H15.0156M22 11.5636H22.0156M7.22222 22.1271V25.4166C7.22222 26.1672 7.22222 26.5424 7.39214 26.7351C7.5399 26.9027 7.76398 27.0003 8.00084 27C8.2732 26.9997 8.59682 26.7653 9.24407 26.2965L12.9548 23.6085C13.7128 23.0595 14.0919 22.785 14.5139 22.5898C14.8883 22.4165 15.2868 22.2899 15.6988 22.2134C16.1631 22.1271 16.6484 22.1271 17.6191 22.1271H21.5333C24.147 22.1271 25.4536 22.1271 26.452 21.6665C27.3301 21.2615 28.044 20.6151 28.4913 19.82C29 18.9161 29 17.7329 29 15.3664V7.76067C29 5.39421 29 4.21098 28.4913 3.30712C28.044 2.51205 27.3301 1.86565 26.452 1.46054C25.4536 1 24.147 1 21.5333 1H8.46667C5.85308 1 4.54629 1 3.54805 1.46054C2.66995 1.86565 1.95604 2.51205 1.50864 3.30712C1 4.21098 1 5.39421 1 7.76067V16.4932C1 17.8031 1 18.458 1.15901 18.9954C1.59052 20.4534 2.84842 21.5924 4.45884 21.9832C5.05228 22.1271 5.7756 22.1271 7.22222 22.1271ZM8.77778 11.5636C8.77778 11.9524 8.42955 12.2678 8 12.2678C7.57045 12.2678 7.22222 11.9524 7.22222 11.5636C7.22222 11.1747 7.57045 10.8593 8 10.8593C8.42955 10.8593 8.77778 11.1747 8.77778 11.5636ZM15.7778 11.5636C15.7778 11.9524 15.4295 12.2678 15 12.2678C14.5705 12.2678 14.2222 11.9524 14.2222 11.5636C14.2222 11.1747 14.5705 10.8593 15 10.8593C15.4295 10.8593 15.7778 11.1747 15.7778 11.5636ZM22.7778 11.5636C22.7778 11.9524 22.4295 12.2678 22 12.2678C21.5705 12.2678 21.2222 11.9524 21.2222 11.5636C21.2222 11.1747 21.5705 10.8593 22 10.8593C22.4295 10.8593 22.7778 11.1747 22.7778 11.5636Z" stroke="white" stroke-width="2" stroke-linecap="round" stroke-linejoin="round"/>
</svg>
